
<svg xmlns="http://www.w3.org/2000/svg" width="24" height="24" viewBox="0 0 24 24" fill="none" stroke="#2D5F2D" stroke-width="2" stroke-linecap="round" stroke-linejoin="round">
  <path d="M12 2v1"/>
  <path d="M12 21v1"/>
  <path d="M4.22 4.22l.77.77"/>
  <path d="M19.01 19.01l.77.77"/>
  <path d="M2 12h1"/>
  <path d="M21 12h1"/>
  <path d="M4.22 19.78l.77-.77"/>
  <path d="M19.01 4.99l.77-.77"/>
  <path d="M12 6C7.5 6 5.5 9 6 12c.5 3 2 4 6 4s5.5-1 6-4c.5-3-1.5-6-6-6Z"/>
  <path d="M12 10v2a2 2 0 0 0 2 2h0"/>
</svg>
